<?xml version="1.0" encoding="UTF-8" standalone="no"?><!DOCTYPE svg PUBLIC "-//W3C//DTD SVG 1.1//EN" "http://www.w3.org/Graphics/SVG/1.1/DTD/svg11.dtd"><svg width="100%" height="100%" viewBox="0 0 67 67" version="1.1" xmlns="http://www.w3.org/2000/svg" xmlns:xlink="http://www.w3.org/1999/xlink" xml:space="preserve" xmlns:serif="http://www.serif.com/" style="fill-rule:evenodd;clip-rule:evenodd;stroke-linejoin:round;stroke-miterlimit:2;"><path d="M50.533,37.187c-0.04,-0.48 -0.427,-0.853 -0.92,-0.853l-11.12,0c1.493,-1.173 3.053,-2.853 4.253,-5.267c0.307,-0.627 0.6,-1.28 0.867,-1.973c-0.08,-0.027 -0.173,-0.067 -0.253,-0.093c-0.333,-0.133 -0.667,-0.267 -0.973,-0.413c-0.267,0.653 -0.547,1.293 -0.84,1.893c-1.507,3.067 -3.707,4.84 -5.467,5.853l-0.307,0c1.667,-2.547 2.8,-5.947 3.56,-9.453c-0.427,-0.293 -0.813,-0.613 -1.173,-0.92c-0.76,3.84 -1.96,7.587 -3.827,10.133l0,-23.787c1.733,0 3.467,-0.04 5.213,-0.107c-0.027,1.027 -0.067,2.48 -0.173,4.173c0.413,-0.107 0.867,-0.173 1.347,-0.213c0.093,-1.64 0.133,-3.04 0.147,-4.027c1.04,-0.04 2.067,-0.08 3.093,-0.147l1.467,-0.093c-0.08,1.48 -0.2,3.04 -0.373,4.627c0.427,0.093 0.853,0.213 1.293,0.347c0.187,-1.733 0.32,-3.44 0.413,-5.053l1.56,-0.093c0.387,-0.027 0.68,-0.347 0.68,-0.733l0,-4.08c0,-0.387 -0.293,-0.707 -0.68,-0.72l-4.36,-0.28c-7.08,-0.453 -14.173,-0.453 -21.253,0l-4.36,0.28c-0.387,0 -0.68,0.333 -0.68,0.72l0,4.08c0,0.387 0.293,0.707 0.68,0.733l1.56,0.093c0.333,6.253 1.347,13.867 4.013,19.253c1.2,2.413 2.76,4.093 4.253,5.267l-11.12,0c-0.48,0 -0.88,0.373 -0.907,0.853l0,0.227l-0.027,0c-0.013,0.373 0.12,0.733 0.387,1c0.253,0.267 0.6,0.413 0.973,0.44l1.827,7.787c-0.08,0.04 -0.147,0.08 -0.2,0.147c-0.147,0.133 -0.213,0.32 -0.2,0.52l0,0.293c0.04,0.627 0.573,1.12 1.227,1.12l12.2,0l0,8.347c0,0.52 -0.387,0.947 -0.893,1c-2.107,0.187 -3.507,0.693 -3.507,1.28c0,0.76 2.427,1.373 5.4,1.373c2.973,0 5.4,-0.613 5.4,-1.373c0,-0.587 -1.4,-1.093 -3.507,-1.28c-0.507,-0.053 -0.893,-0.48 -0.893,-1l0,-8.347l12.2,0c0.653,0 1.187,-0.493 1.213,-1.133l0,-0.28c0.027,-0.2 -0.04,-0.387 -0.173,-0.52c-0.067,-0.067 -0.133,-0.107 -0.213,-0.147l1.827,-7.787c0.373,-0.027 0.72,-0.173 0.973,-0.44c0.267,-0.267 0.4,-0.627 0.387,-1l0,-0.227l-0.013,-0Zm-30.067,9.387l-1.8,-7.693l3.6,0l1.2,7.693l-3,0Zm4.173,0l-1.2,-7.693l4.347,0l0.24,7.693l-3.387,0Zm0.467,-16.093c-2.547,-5.16 -3.533,-12.493 -3.867,-18.587l1.467,0.093c1.027,0.067 2.053,0.107 3.093,0.147c0.053,4.533 0.627,17.427 5.093,24.2l-0.32,0c-1.76,-1.013 -3.933,-2.787 -5.467,-5.853Zm7.227,16.093l-3.107,0l-0.253,-7.693l3.36,0l0,7.693Zm0,-10.48c-4.48,-6.147 -5.12,-19.293 -5.2,-23.893c1.733,0.067 3.467,0.107 5.2,0.107l0,23.787Zm5.107,10.48l-3.107,0l0,-7.693l3.36,0l-0.253,7.693Zm1.2,0l0.24,-7.693l4.347,0l-1.2,7.693l-3.387,0Zm7.56,0l-3,0l1.2,-7.693l3.6,0l-1.8,7.693Z" style="fill:#09b000;fill-rule:nonzero;"/><path d="M47.293,18.8c-0.373,-0.147 -0.76,-0.267 -1.133,-0.387c-0.427,-0.147 -0.84,-0.253 -1.267,-0.347c-1.107,-0.253 -2.173,-0.373 -3.133,-0.373c-0.347,0 -0.693,0 -1.013,0.067c-0.48,0.04 -0.933,0.133 -1.333,0.267c-1.067,0.307 -1.84,0.893 -2.16,1.72l-0.16,0.387c-0.48,1.227 0.16,2.733 1.547,4.133c0.333,0.36 0.72,0.707 1.147,1.013c0.88,0.707 1.947,1.333 3.147,1.867c0.307,0.16 0.64,0.28 0.973,0.413c0.08,0.027 0.16,0.067 0.24,0.08c1.867,0.707 3.707,1.04 5.28,1.04c2.28,0 4.013,-0.707 4.533,-2.04l0.147,-0.387c0.893,-2.32 -2.16,-5.64 -6.813,-7.44l0,-0.013Zm-2.92,1.84l0.013,0c0.08,0 0.187,-0.013 0.293,-0.013c0.307,0 0.693,0.053 1.093,0.173c0.213,0.053 0.453,0.12 0.667,0.213c1.253,0.493 2.133,1.253 1.96,1.707c-0.08,0.213 -0.4,0.32 -0.84,0.32c-0.48,0 -1.107,-0.12 -1.747,-0.373c-0.12,-0.04 -0.253,-0.093 -0.36,-0.16c-0.547,-0.253 -0.987,-0.547 -1.267,-0.827c-0.28,-0.267 -0.4,-0.533 -0.333,-0.733c0.053,-0.16 0.253,-0.253 0.52,-0.307Zm9.16,5.533c-0.44,1.12 -2.067,1.733 -4.187,1.733c-1.507,0 -3.24,-0.28 -4.987,-0.933c-0.107,-0.04 -0.2,-0.08 -0.293,-0.12c-0.307,-0.12 -0.613,-0.253 -0.893,-0.387c-1.267,-0.56 -2.36,-1.253 -3.227,-1.973c-0.44,-0.373 -0.813,-0.76 -1.147,-1.133c-1,-1.173 -1.413,-2.36 -1.067,-3.293l0.147,-0.4c-0.267,0.853 0.04,1.827 0.947,2.907c0.32,0.373 0.72,0.773 1.16,1.133c0.88,0.76 2,1.453 3.293,2.04c0.307,0.147 0.64,0.267 0.96,0.4c0.08,0.027 0.173,0.067 0.253,0.093c1.84,0.68 3.64,1 5.173,1c1.987,0 3.587,-0.427 4.053,-1.453l-0.16,0.4l-0.027,-0.013Z" style="fill:#05be00;fill-rule:nonzero;"/></svg>